<?xml version="1.0" encoding="UTF-8"?>
<svg xmlns="http://www.w3.org/2000/svg" xmlns:xlink="http://www.w3.org/1999/xlink" width="500px" height="500px" viewBox="0 0 500 500" version="1.1">
<defs>
<linearGradient id="linear0" gradientUnits="userSpaceOnUse" x1="39.938" y1="30" x2="39.938" y2="39" spreadMethod="reflect" gradientTransform="matrix(7.8125,0,0,7.8125,0,0)">
<stop offset="0" style="stop-color:rgb(42.745098%,78.039216%,100%);stop-opacity:1;"/>
<stop offset="1" style="stop-color:rgb(90.196078%,67.058824%,100%);stop-opacity:1;"/>
</linearGradient>
<linearGradient id="linear1" gradientUnits="userSpaceOnUse" x1="31.999" y1="10.961" x2="31.999" y2="53" spreadMethod="reflect" gradientTransform="matrix(7.8125,0,0,7.8125,0,0)">
<stop offset="0" style="stop-color:rgb(10.196078%,42.745098%,100%);stop-opacity:1;"/>
<stop offset="1" style="stop-color:rgb(78.431373%,13.333333%,100%);stop-opacity:1;"/>
</linearGradient>
<linearGradient id="linear2" gradientUnits="userSpaceOnUse" x1="24" y1="30" x2="24" y2="39" spreadMethod="reflect" gradientTransform="matrix(7.8125,0,0,7.8125,0,0)">
<stop offset="0" style="stop-color:rgb(42.745098%,78.039216%,100%);stop-opacity:1;"/>
<stop offset="1" style="stop-color:rgb(90.196078%,67.058824%,100%);stop-opacity:1;"/>
</linearGradient>
</defs>
<g id="surface91844">
<path style=" stroke:none;fill-rule:nonzero;fill:url(#linear0);" d="M 312.015625 234.375 C 295.023438 234.375 281.25 250.113281 281.25 269.53125 C 281.25 288.949219 295.023438 304.6875 312.015625 304.6875 C 329.007812 304.6875 342.78125 288.949219 342.78125 269.53125 C 342.78125 250.113281 329.007812 234.375 312.015625 234.375 Z M 312.015625 234.375 "/>
<path style=" stroke:none;fill-rule:nonzero;fill:url(#linear1);" d="M 408.304688 124.515625 C 370.679688 94.273438 306.554688 86.039062 303.835938 85.703125 C 300.421875 85.257812 297.15625 87.125 295.75 90.257812 C 295.554688 90.6875 291.507812 99.867188 289.671875 111.992188 C 274.109375 109.945312 260.257812 109.375 249.867188 109.375 C 239.140625 109.375 224.742188 109.96875 208.546875 112.1875 C 206.726562 99.96875 202.632812 90.679688 202.4375 90.25 C 201.03125 87.117188 197.765625 85.28125 194.320312 85.695312 C 191.6875 86.03125 129.304688 94.28125 91.289062 124.859375 C 71.265625 143.359375 31.25 250.976562 31.25 343.75 C 31.25 345.101562 31.601562 346.4375 32.273438 347.617188 C 59.046875 394.648438 138.195312 413.492188 156 414.0625 C 156.085938 414.0625 156.164062 414.0625 156.25 414.0625 C 158.617188 414.0625 160.867188 412.984375 162.351562 411.132812 L 189.65625 377.007812 C 207.179688 380.492188 227.328125 382.8125 250.1875 382.8125 C 272.929688 382.8125 292.953125 380.515625 310.390625 377.054688 L 337.65625 411.132812 C 339.132812 412.984375 341.382812 414.0625 343.75 414.0625 C 343.835938 414.0625 343.914062 414.0625 344 414.0625 C 361.765625 413.492188 440.796875 394.570312 467.710938 347.289062 C 468.382812 346.117188 468.734375 344.78125 468.734375 343.421875 C 468.742188 250.820312 428.726562 143.351562 408.304688 124.515625 Z M 347.273438 398.148438 L 327.273438 373.148438 C 371.296875 361.4375 394.210938 343.101562 395.585938 341.976562 C 398.914062 339.242188 399.390625 334.335938 396.671875 331 C 393.945312 327.671875 389.03125 327.171875 385.6875 329.882812 C 385.226562 330.257812 338.789062 367.1875 250.1875 367.1875 C 161.664062 367.1875 114.859375 330.320312 114.296875 329.875 C 110.960938 327.15625 106.039062 327.65625 103.320312 331.007812 C 100.59375 334.351562 101.09375 339.273438 104.445312 342 C 105.828125 343.125 128.828125 361.375 172.789062 373.085938 L 152.734375 398.15625 C 130.03125 395.632812 68.859375 377.390625 46.898438 341.625 C 47.507812 253.28125 86.078125 150.960938 101.5 136.6875 C 129.210938 114.414062 174.007812 104.96875 190.21875 102.15625 C 191.257812 105.382812 192.414062 109.8125 193.132812 114.742188 C 169.765625 119.265625 144.117188 127.390625 120.898438 141.796875 C 117.226562 144.070312 116.101562 148.882812 118.375 152.546875 C 120.65625 156.226562 125.460938 157.359375 129.125 155.070312 C 171.3125 128.90625 222.882812 125 249.867188 125 C 276.953125 125 328.6875 128.90625 370.882812 155.078125 C 372.164062 155.875 373.585938 156.25 374.992188 156.25 C 377.601562 156.25 380.164062 154.9375 381.640625 152.554688 C 383.921875 148.890625 382.789062 144.078125 379.117188 141.804688 C 355.34375 127.054688 328.984375 118.90625 305.109375 114.445312 C 305.835938 109.617188 306.976562 105.296875 307.992188 102.132812 C 324.46875 104.882812 370.570312 114.234375 398.101562 136.34375 C 413.929688 150.960938 452.484375 253.140625 453.101562 341.304688 C 431.03125 377.28125 369.9375 395.625 347.273438 398.148438 Z M 347.273438 398.148438 "/>
<path style=" stroke:none;fill-rule:nonzero;fill:url(#linear2);" d="M 187.5 234.375 C 170.242188 234.375 156.25 250.113281 156.25 269.53125 C 156.25 288.949219 170.242188 304.6875 187.5 304.6875 C 204.757812 304.6875 218.75 288.949219 218.75 269.53125 C 218.75 250.113281 204.757812 234.375 187.5 234.375 Z M 187.5 234.375 "/>
</g>
</svg>
